# xmcd
#
# Track frame offsets: 
#        150
#        16009
#        33422
#        50361
#        64624
#        81173
#        96299
#        111188
#        129365
#        142202
#        161233
#        177233
#        191961
#        207879
#
# Disc length: 2997 seconds
#
# Revision: 0
# Processed by: cddbd v1.5.2PL0 Copyright (c) Steve Scherf et al.
# Submitted via: ExactAudioCopyFreeDBPlugin 1.0
#
DISCID=c40bb30e
DTITLE=Ali As - Euphoria
DYEAR=2016
DGENRE=Hip-Hop
TTITLE0=Denkmäler
TTITLE1=Silber oder Blei
TTITLE2=Lass sie tanzen (Square Dance) feat. Namika
TTITLE3=Was für'n Leben
TTITLE4=Farid Bang feat. Farid Bang
TTITLE5=Dope in der Denim
TTITLE6=Monstertruck
TTITLE7=Jetzt komm' wir
TTITLE8=Ali AS - Ferienhaus
TTITLE9=Euphoria feat. Kollegah
TTITLE10=Comeback - Bombtrack
TTITLE11=Stempel im Pass feat. MoTrip
TTITLE12=1 Mio Psychos
TTITLE13=Erpresserbrief
EXTD=
EXTT0=
EXTT1=
EXTT2=
EXTT3=
EXTT4=
EXTT5=
EXTT6=
EXTT7=
EXTT8=
EXTT9=
EXTT10=
EXTT11=
EXTT12=
EXTT13=
PLAYORDER=
